<svg width="32" height="32" viewBox="0 0 32 32" fill="none" xmlns="http://www.w3.org/2000/svg">
<g id="Pern Logo">
<path id="Vector" d="M21.3662 18.4616C21.4646 17.6493 21.5385 16.837 21.5385 16.0001C21.5385 15.1632 21.4646 14.3508 21.3662 13.5385H25.5262C25.7231 14.3262 25.8462 15.1508 25.8462 16.0001C25.8462 16.8493 25.7231 17.6739 25.5262 18.4616M19.1877 25.3047C19.9262 23.9385 20.4923 22.4616 20.8862 20.9232H24.5169C23.3245 22.9764 21.4328 24.5318 19.1877 25.3047ZM18.88 18.4616H13.12C12.9969 17.6493 12.9231 16.837 12.9231 16.0001C12.9231 15.1632 12.9969 14.3385 13.12 13.5385H18.88C18.9908 14.3385 19.0769 15.1632 19.0769 16.0001C19.0769 16.837 18.9908 17.6493 18.88 18.4616ZM16 25.797C14.9785 24.3201 14.1538 22.6832 13.6492 20.9232H18.3508C17.8462 22.6832 17.0215 24.3201 16 25.797ZM11.0769 11.077H7.48308C8.66321 9.01819 10.5536 7.46037 12.8 6.69546C12.0615 8.06161 11.5077 9.53854 11.0769 11.077ZM7.48308 20.9232H11.0769C11.5077 22.4616 12.0615 23.9385 12.8 25.3047C10.5583 24.5314 8.67058 22.9757 7.48308 20.9232ZM6.47385 18.4616C6.27692 17.6739 6.15384 16.8493 6.15384 16.0001C6.15384 15.1508 6.27692 14.3262 6.47385 13.5385H10.6338C10.5354 14.3508 10.4615 15.1632 10.4615 16.0001C10.4615 16.837 10.5354 17.6493 10.6338 18.4616M16 6.19084C17.0215 7.66777 17.8462 9.317 18.3508 11.077H13.6492C14.1538 9.317 14.9785 7.66777 16 6.19084ZM24.5169 11.077H20.8862C20.5009 9.55264 19.9305 8.08118 19.1877 6.69546C21.4523 7.47084 23.3354 9.03392 24.5169 11.077ZM16 3.69238C9.19384 3.69238 3.69231 9.23084 3.69231 16.0001C3.69231 19.2643 4.98901 22.3948 7.29715 24.7029C8.44002 25.8458 9.79681 26.7524 11.29 27.3709C12.7833 27.9894 14.3837 28.3078 16 28.3078C19.2642 28.3078 22.3947 27.0111 24.7029 24.7029C27.011 22.3948 28.3077 19.2643 28.3077 16.0001C28.3077 14.3838 27.9893 12.7834 27.3708 11.2901C26.7523 9.79689 25.8457 8.4401 24.7029 7.29722C23.56 6.15435 22.2032 5.24777 20.7099 4.62925C19.2167 4.01073 17.6163 3.69238 16 3.69238Z" fill="#444CE7"/>
</g>
</svg>
